<svg width="123" height="123" viewBox="0 0 123 123" fill="none" xmlns="http://www.w3.org/2000/svg">
    <g filter="url(#filter0_d_0_1)">
        <rect x="21.72" y="17.7998" width="80" height="80" rx="20" fill="url(#paint0_radial_0_1)" shape-rendering="crispEdges" />
    </g>
    <path fill-rule="evenodd" clip-rule="evenodd" d="M47.254 48.1165H45.1224L42 45.1035L44.1316 43.0948L46.2032 45.0461L50.4365 41L52.5681 43.0374L47.254 48.1165V48.1165ZM56.9815 43.8696H81V46.7391H56.9815V43.8696ZM56.9815 52.4783H81V55.3478H56.9815V52.4783ZM81 61.087H56.9815V63.9565H81V61.087ZM56.9815 69.6957H81V72.5652H56.9815V69.6957ZM45.1224 56.7252H47.254L52.5681 51.6461L50.4365 49.6374L46.2032 53.6835L44.1316 51.7035L42 53.7409L45.1224 56.7252ZM47.254 65.3626H45.1224L42 62.3783L44.1316 60.3409L46.2032 62.3209L50.4365 58.2461L52.5681 60.2835L47.254 65.3626V65.3626ZM45.1224 74H47.254L52.5681 68.9209L50.4365 66.8835L46.2032 70.9583L44.1316 68.9783L42 70.987L45.1224 74V74Z" fill="white" />
    <defs>
        <filter id="filter0_d_0_1" x="0.719971" y="0.799805" width="122" height="122" filterUnits="userSpaceOnUse" color-interpolation-filters="sRGB">
            <feFlood flood-opacity="0" result="BackgroundImageFix" />
            <feColorMatrix in="SourceAlpha" type="matrix" values="0 0 0 0 0 0 0 0 0 0 0 0 0 0 0 0 0 0 127 0" result="hardAlpha" />
            <feOffset dy="4" />
            <feGaussianBlur stdDeviation="10.5" />
            <feComposite in2="hardAlpha" operator="out" />
            <feColorMatrix type="matrix" values="0 0 0 0 0.0627451 0 0 0 0 0.164706 0 0 0 0 0.427451 0 0 0 0.29 0" />
            <feBlend mode="normal" in2="BackgroundImageFix" result="effect1_dropShadow_0_1" />
            <feBlend mode="normal" in="SourceGraphic" in2="effect1_dropShadow_0_1" result="shape" />
        </filter>
        <radialGradient id="paint0_radial_0_1" cx="0" cy="0" r="1" gradientUnits="userSpaceOnUse" gradientTransform="translate(115.22 11.2998) rotate(138.998) scale(131.843)">
            <stop offset="0.025" stop-color="#375DBE" />
            <stop offset="0.932292" stop-color="#102A6D" />
            <stop offset="1" stop-color="#102A6D" stop-opacity="0" />
        </radialGradient>
    </defs>
</svg>
