<svg width="123" height="123" viewBox="0 0 123 123" fill="none" xmlns="http://www.w3.org/2000/svg">
    <g filter="url(#filter0_d_0_1)">
        <rect x="21.72" y="17.7998" width="80" height="80" rx="20" fill="url(#paint0_radial_0_1)" shape-rendering="crispEdges" />
    </g>
    <g filter="url(#filter1_d_0_1)">
        <path d="M74.625 42.25H66.7875C66 40.22 63.9375 38.75 61.5 38.75C59.0625 38.75 57 40.22 56.2125 42.25H48.375C46.3125 42.25 44.625 43.825 44.625 45.75V70.25C44.625 72.175 46.3125 73.75 48.375 73.75H74.625C76.6875 73.75 78.375 72.175 78.375 70.25V45.75C78.375 43.825 76.6875 42.25 74.625 42.25ZM61.5 42.25C62.5313 42.25 63.375 43.0375 63.375 44C63.375 44.9625 62.5313 45.75 61.5 45.75C60.4687 45.75 59.625 44.9625 59.625 44C59.625 43.0375 60.4687 42.25 61.5 42.25ZM65.25 66.75H52.125V63.25H65.25V66.75ZM70.875 59.75H52.125V56.25H70.875V59.75ZM70.875 52.75H52.125V49.25H70.875V52.75Z" fill="white" />
    </g>
    <defs>
        <filter id="filter0_d_0_1" x="0.719971" y="0.799805" width="122" height="122" filterUnits="userSpaceOnUse" color-interpolation-filters="sRGB">
            <feFlood flood-opacity="0" result="BackgroundImageFix" />
            <feColorMatrix in="SourceAlpha" type="matrix" values="0 0 0 0 0 0 0 0 0 0 0 0 0 0 0 0 0 0 127 0" result="hardAlpha" />
            <feOffset dy="4" />
            <feGaussianBlur stdDeviation="10.5" />
            <feComposite in2="hardAlpha" operator="out" />
            <feColorMatrix type="matrix" values="0 0 0 0 0.0627451 0 0 0 0 0.164706 0 0 0 0 0.427451 0 0 0 0.29 0" />
            <feBlend mode="normal" in2="BackgroundImageFix" result="effect1_dropShadow_0_1" />
            <feBlend mode="normal" in="SourceGraphic" in2="effect1_dropShadow_0_1" result="shape" />
        </filter>
        <filter id="filter1_d_0_1" x="24" y="26" width="75" height="72" filterUnits="userSpaceOnUse" color-interpolation-filters="sRGB">
            <feFlood flood-opacity="0" result="BackgroundImageFix" />
            <feColorMatrix in="SourceAlpha" type="matrix" values="0 0 0 0 0 0 0 0 0 0 0 0 0 0 0 0 0 0 127 0" result="hardAlpha" />
            <feOffset dy="4" />
            <feGaussianBlur stdDeviation="7.5" />
            <feComposite in2="hardAlpha" operator="out" />
            <feColorMatrix type="matrix" values="0 0 0 0 0 0 0 0 0 0 0 0 0 0 0 0 0 0 0.25 0" />
            <feBlend mode="normal" in2="BackgroundImageFix" result="effect1_dropShadow_0_1" />
            <feBlend mode="normal" in="SourceGraphic" in2="effect1_dropShadow_0_1" result="shape" />
        </filter>
        <radialGradient id="paint0_radial_0_1" cx="0" cy="0" r="1" gradientUnits="userSpaceOnUse" gradientTransform="translate(115.22 11.2998) rotate(138.998) scale(131.843)">
            <stop offset="0.025" stop-color="#375DBE" />
            <stop offset="0.932292" stop-color="#102A6D" />
            <stop offset="1" stop-color="#102A6D" stop-opacity="0" />
        </radialGradient>
    </defs>
</svg>
